<svg width="326" height="18" viewBox="0 0 326 18" fill="none" xmlns="http://www.w3.org/2000/svg">
<path d="M9.846 14V12.668H6.606V1.436H4.248L0.918 4.55L1.8 5.504L4.968 2.552H5.094V12.668H1.584V14H9.846ZM18.983 14V11.534H20.801V10.274H18.983V1.436H16.733L11.477 10.202V11.534H17.543V14H18.983ZM17.453 2.606H17.543V10.274H12.899L17.453 2.606ZM31.1799 12.668H24.5739L27.9579 9.626C29.5599 8.186 30.7119 6.818 30.7119 4.874C30.7119 2.732 29.3079 1.22 26.8599 1.22C24.4299 1.22 23.3139 2.696 22.8279 4.172L24.1779 4.694C24.5199 3.506 25.2399 2.57 26.7879 2.57C28.3359 2.57 29.1099 3.524 29.1099 4.91V5.126C29.1099 6.332 28.2099 7.592 27.0399 8.672L22.9359 12.452V14H31.1799V12.668ZM34.8269 11.894C34.0709 11.894 33.7289 12.326 33.7289 12.956V13.208C33.7289 13.694 33.9449 14.054 34.4309 14.162C34.2329 15.008 33.8009 15.638 33.0809 16.394H34.2869C35.3129 15.512 35.9249 14.18 35.9249 13.208V12.956C35.9249 12.326 35.5829 11.894 34.8269 11.894ZM42.0532 14L46.7692 2.768V1.436H38.5252V5.072H39.8752V2.732H45.2392L40.4332 14H42.0532ZM53.4942 14.216C56.0142 14.216 57.6702 12.524 57.6702 10.058C57.6702 7.682 56.1222 6.188 53.9622 6.188C52.4322 6.188 51.5322 6.962 50.9382 7.988L50.8482 7.952C51.5322 5.036 53.0262 3.398 55.7082 1.436H53.7642C51.7482 2.75 49.2822 5.666 49.2822 9.392C49.2822 12.38 50.8842 14.216 53.4942 14.216ZM53.4762 12.902C51.8202 12.902 50.8482 11.948 50.8482 10.256V10.112C50.8482 8.42 51.8202 7.466 53.4762 7.466C55.1322 7.466 56.1042 8.42 56.1042 10.112V10.256C56.1042 11.948 55.1322 12.902 53.4762 12.902ZM67.8331 1.436H61.1011L60.6511 8.348L61.9291 8.528C62.4511 7.952 63.0271 7.466 64.1791 7.466C65.8891 7.466 66.8071 8.42 66.8071 10.076V10.256C66.8071 11.912 65.8891 12.866 64.1791 12.866C62.6671 12.866 62.0371 12.2 61.3891 11.21L60.2551 12.074C61.0111 13.154 62.0911 14.216 64.1791 14.216C66.8251 14.216 68.4091 12.506 68.4091 10.058C68.4091 7.628 66.8251 6.17 64.6651 6.17C63.3511 6.17 62.6851 6.71 62.0911 7.556H61.9651L62.3251 2.768H67.8331V1.436ZM80.018 14.216C82.106 14.216 83.636 13.118 84.428 11.354L83.222 10.598C82.718 11.966 81.62 12.866 80.018 12.866C77.858 12.866 76.58 11.3 76.58 8.726V6.854C76.58 4.28 77.858 2.57 80.018 2.57C81.566 2.57 82.61 3.416 83.114 4.712L84.338 3.974C83.546 2.228 82.106 1.22 80.018 1.22C76.85 1.22 74.96 3.596 74.96 7.79C74.96 11.984 76.85 14.216 80.018 14.216ZM90.1357 14.216C92.6197 14.216 94.3297 12.308 94.3297 9.356C94.3297 6.404 92.6197 4.496 90.1357 4.496C87.6517 4.496 85.9417 6.404 85.9417 9.356C85.9417 12.308 87.6517 14.216 90.1357 14.216ZM90.1357 12.938C88.5877 12.938 87.4897 11.984 87.4897 10.022V8.69C87.4897 6.728 88.5877 5.774 90.1357 5.774C91.6837 5.774 92.7817 6.728 92.7817 8.69V10.022C92.7817 11.984 91.6837 12.938 90.1357 12.938ZM98.138 14V7.556C98.138 6.368 99.218 5.792 100.352 5.792C101.72 5.792 102.35 6.638 102.35 8.294V14H103.79V7.556C103.79 6.368 104.834 5.792 105.968 5.792C107.372 5.792 108.002 6.656 108.002 8.294V14H109.442V8.042C109.442 5.792 108.308 4.496 106.418 4.496C104.834 4.496 103.934 5.378 103.592 6.386H103.556C103.052 5.054 101.936 4.496 100.712 4.496C99.272 4.496 98.624 5.27 98.21 6.224H98.138V4.712H96.698V14H98.138ZM112.413 17.6H113.853V12.488H113.925C114.483 13.64 115.365 14.216 116.643 14.216C118.965 14.216 120.423 12.326 120.423 9.356C120.423 6.386 118.965 4.496 116.643 4.496C115.365 4.496 114.411 5.054 113.925 6.224H113.853V4.712H112.413V17.6ZM116.247 12.92C114.933 12.92 113.853 12.236 113.853 11.03V7.574C113.853 6.548 114.933 5.792 116.247 5.792C117.867 5.792 118.875 6.908 118.875 8.564V10.148C118.875 11.804 117.867 12.92 116.247 12.92ZM128.578 14H130.018V4.712H128.578V11.138C128.578 12.362 127.462 12.92 126.328 12.92C124.942 12.92 124.204 12.074 124.204 10.418V4.712H122.764V10.67C122.764 12.92 123.988 14.216 125.896 14.216C127.444 14.216 128.146 13.37 128.506 12.488H128.578V14ZM136.937 14V12.74H135.047V5.972H137.081V4.712H135.047V2.138H133.751V3.866C133.751 4.496 133.553 4.712 132.941 4.712H132.077V5.972H133.607V12.47C133.607 13.37 134.147 14 135.137 14H136.937ZM142.817 14.216C144.563 14.216 145.895 13.352 146.489 12.092L145.463 11.354C144.977 12.38 144.077 12.956 142.907 12.956C141.179 12.956 140.153 11.75 140.153 10.148V9.716H146.831V9.032C146.831 6.404 145.301 4.496 142.817 4.496C140.297 4.496 138.641 6.404 138.641 9.356C138.641 12.308 140.297 14.216 142.817 14.216ZM142.817 5.702C144.293 5.702 145.283 6.8 145.283 8.438V8.636H140.153V8.51C140.153 6.89 141.251 5.702 142.817 5.702ZM150.644 14V7.7C150.644 6.818 151.58 6.152 153.128 6.152H153.974V4.712H153.416C151.904 4.712 151.058 5.54 150.734 6.422H150.644V4.712H149.204V14H150.644ZM167.879 14V12.668H161.723V8.312H167.519V6.98H161.723V2.768H167.879V1.436H160.211V14H167.879ZM172.001 14V7.556C172.001 6.368 173.117 5.792 174.269 5.792C175.655 5.792 176.375 6.638 176.375 8.294V14H177.815V8.042C177.815 5.792 176.609 4.496 174.701 4.496C173.315 4.496 172.523 5.18 172.073 6.224H172.001V4.712H170.561V14H172.001ZM188.622 15.026C188.622 13.496 187.632 12.56 185.328 12.56H183.348C182.502 12.56 181.926 12.416 181.926 11.858C181.926 11.282 182.538 10.976 183.15 10.814C183.42 10.868 183.744 10.904 184.05 10.904C186.174 10.904 187.56 9.59 187.56 7.7C187.56 6.71 187.164 5.882 186.498 5.306V4.712H188.262V3.452H186.876C186.102 3.452 185.796 3.974 185.796 4.694V4.856C185.292 4.622 184.698 4.496 184.032 4.496C181.926 4.496 180.54 5.81 180.54 7.7C180.54 8.996 181.188 10.022 182.286 10.544V10.616C181.35 10.85 180.684 11.3 180.684 12.236C180.684 12.866 180.99 13.28 181.512 13.532V13.73C180.594 13.982 180.036 14.522 180.036 15.53C180.036 16.988 181.224 17.816 184.122 17.816C187.11 17.816 188.622 16.934 188.622 15.026ZM187.272 15.134C187.272 16.142 186.336 16.646 184.734 16.646H183.402C181.944 16.646 181.386 15.98 181.386 15.17C181.386 14.594 181.656 14.18 182.25 13.91H185.346C186.786 13.91 187.272 14.396 187.272 15.134ZM184.05 9.752C182.826 9.752 182.052 9.176 182.052 7.952V7.448C182.052 6.224 182.826 5.648 184.05 5.648C185.274 5.648 186.048 6.224 186.048 7.448V7.952C186.048 9.176 185.274 9.752 184.05 9.752ZM191.021 2.534C191.633 2.534 191.903 2.21 191.903 1.724V1.49C191.903 1.004 191.633 0.68 191.021 0.68C190.409 0.68 190.139 1.004 190.139 1.49V1.724C190.139 2.21 190.409 2.534 191.021 2.534ZM190.301 14H191.741V4.712H190.301V14ZM196.241 14V7.556C196.241 6.368 197.357 5.792 198.509 5.792C199.895 5.792 200.615 6.638 200.615 8.294V14H202.055V8.042C202.055 5.792 200.849 4.496 198.941 4.496C197.555 4.496 196.763 5.18 196.313 6.224H196.241V4.712H194.801V14H196.241ZM208.524 14.216C210.27 14.216 211.602 13.352 212.196 12.092L211.17 11.354C210.684 12.38 209.784 12.956 208.614 12.956C206.886 12.956 205.86 11.75 205.86 10.148V9.716H212.538V9.032C212.538 6.404 211.008 4.496 208.524 4.496C206.004 4.496 204.348 6.404 204.348 9.356C204.348 12.308 206.004 14.216 208.524 14.216ZM208.524 5.702C210 5.702 210.99 6.8 210.99 8.438V8.636H205.86V8.51C205.86 6.89 206.958 5.702 208.524 5.702ZM218.403 14.216C220.149 14.216 221.481 13.352 222.075 12.092L221.049 11.354C220.563 12.38 219.663 12.956 218.493 12.956C216.765 12.956 215.739 11.75 215.739 10.148V9.716H222.417V9.032C222.417 6.404 220.887 4.496 218.403 4.496C215.883 4.496 214.227 6.404 214.227 9.356C214.227 12.308 215.883 14.216 218.403 14.216ZM218.403 5.702C219.879 5.702 220.869 6.8 220.869 8.438V8.636H215.739V8.51C215.739 6.89 216.837 5.702 218.403 5.702ZM226.23 14V7.7C226.23 6.818 227.166 6.152 228.714 6.152H229.56V4.712H229.002C227.49 4.712 226.644 5.54 226.32 6.422H226.23V4.712H224.79V14H226.23ZM234.189 14.216C236.313 14.216 237.627 13.118 237.627 11.318C237.627 9.914 236.835 9.014 234.783 8.708L234.063 8.6C232.911 8.42 232.281 8.06 232.281 7.16C232.281 6.278 232.911 5.72 234.099 5.72C235.287 5.72 236.079 6.278 236.493 6.854L237.447 5.99C236.691 5.054 235.701 4.496 234.207 4.496C232.317 4.496 230.895 5.396 230.895 7.232C230.895 8.96 232.173 9.662 233.883 9.914L234.621 10.022C235.845 10.202 236.241 10.76 236.241 11.48C236.241 12.434 235.521 12.992 234.297 12.992C233.127 12.992 232.263 12.47 231.543 11.57L230.517 12.398C231.345 13.496 232.479 14.216 234.189 14.216ZM244.929 14H246.369V5.972H248.367V4.712H246.369V1.94H248.367V0.68H246.963C245.595 0.68 244.929 1.562 244.929 2.84V4.712H243.417V5.972H244.929V14ZM253.7 14.216C256.184 14.216 257.894 12.308 257.894 9.356C257.894 6.404 256.184 4.496 253.7 4.496C251.216 4.496 249.506 6.404 249.506 9.356C249.506 12.308 251.216 14.216 253.7 14.216ZM253.7 12.938C252.152 12.938 251.054 11.984 251.054 10.022V8.69C251.054 6.728 252.152 5.774 253.7 5.774C255.248 5.774 256.346 6.728 256.346 8.69V10.022C256.346 11.984 255.248 12.938 253.7 12.938ZM263.07 14V12.74H261.702V0.68H260.262V12.506C260.262 13.37 260.802 14 261.792 14H263.07ZM267.887 14V12.74H266.519V0.68H265.079V12.506C265.079 13.37 265.619 14 266.609 14H267.887ZM273.493 14.216C275.977 14.216 277.687 12.308 277.687 9.356C277.687 6.404 275.977 4.496 273.493 4.496C271.009 4.496 269.299 6.404 269.299 9.356C269.299 12.308 271.009 14.216 273.493 14.216ZM273.493 12.938C271.945 12.938 270.847 11.984 270.847 10.022V8.69C270.847 6.728 271.945 5.774 273.493 5.774C275.041 5.774 276.139 6.728 276.139 8.69V10.022C276.139 11.984 275.041 12.938 273.493 12.938ZM281.48 14H283.226L284.522 9.536L285.314 6.71H285.35L286.16 9.536L287.456 14H289.238L291.704 4.712H290.354L289.346 8.726L288.392 12.794H288.355L287.204 8.726L285.998 4.712H284.72L283.55 8.726L282.416 12.794H282.38L281.39 8.726L280.4 4.712H278.996L281.48 14ZM301.89 14V12.74H300V5.972H302.034V4.712H300V2.138H298.704V3.866C298.704 4.496 298.506 4.712 297.894 4.712H297.03V5.972H298.56V12.47C298.56 13.37 299.1 14 300.09 14H301.89ZM304.348 14H305.788V7.556C305.788 6.368 306.904 5.792 308.056 5.792C309.442 5.792 310.162 6.638 310.162 8.294V14H311.602V8.042C311.602 5.792 310.396 4.496 308.488 4.496C307.102 4.496 306.31 5.18 305.86 6.224H305.788V0.68H304.348V14ZM315.299 2.534C315.911 2.534 316.181 2.21 316.181 1.724V1.49C316.181 1.004 315.911 0.68 315.299 0.68C314.687 0.68 314.417 1.004 314.417 1.49V1.724C314.417 2.21 314.687 2.534 315.299 2.534ZM314.579 14H316.019V4.712H314.579V14ZM321.869 14.216C323.993 14.216 325.307 13.118 325.307 11.318C325.307 9.914 324.515 9.014 322.463 8.708L321.743 8.6C320.591 8.42 319.961 8.06 319.961 7.16C319.961 6.278 320.591 5.72 321.779 5.72C322.967 5.72 323.759 6.278 324.173 6.854L325.127 5.99C324.371 5.054 323.381 4.496 321.887 4.496C319.997 4.496 318.575 5.396 318.575 7.232C318.575 8.96 319.853 9.662 321.563 9.914L322.301 10.022C323.525 10.202 323.921 10.76 323.921 11.48C323.921 12.434 323.201 12.992 321.977 12.992C320.807 12.992 319.943 12.47 319.223 11.57L318.197 12.398C319.025 13.496 320.159 14.216 321.869 14.216Z" fill="white"/>
</svg>
