<svg width="377" height="35" viewBox="0 0 377 35" fill="none" xmlns="http://www.w3.org/2000/svg">
<path d="M11.924 27.432C10.22 27.432 8.684 27.168 7.316 26.64C5.948 26.088 4.784 25.284 3.824 24.228C2.864 23.148 2.12 21.816 1.592 20.232C1.064 18.624 0.8 16.752 0.8 14.616C0.8 12.504 1.064 10.632 1.592 9C2.12 7.344 2.864 5.964 3.824 4.86C4.784 3.732 5.948 2.88 7.316 2.304C8.684 1.728 10.22 1.44 11.924 1.44C14.252 1.44 16.172 1.92 17.684 2.88C19.196 3.816 20.408 5.304 21.32 7.344L16.604 9.792C16.268 8.736 15.74 7.896 15.02 7.272C14.324 6.624 13.292 6.3 11.924 6.3C10.316 6.3 9.02 6.828 8.036 7.884C7.076 8.916 6.596 10.428 6.596 12.42V16.452C6.596 18.444 7.076 19.968 8.036 21.024C9.02 22.056 10.316 22.572 11.924 22.572C13.268 22.572 14.336 22.212 15.128 21.492C15.944 20.748 16.544 19.86 16.928 18.828L21.392 21.42C20.456 23.34 19.22 24.828 17.684 25.884C16.172 26.916 14.252 27.432 11.924 27.432ZM32.6012 27.432C31.2092 27.432 29.9612 27.204 28.8572 26.748C27.7772 26.292 26.8532 25.632 26.0852 24.768C25.3412 23.904 24.7652 22.86 24.3572 21.636C23.9492 20.412 23.7452 19.044 23.7452 17.532C23.7452 16.02 23.9492 14.652 24.3572 13.428C24.7652 12.204 25.3412 11.172 26.0852 10.332C26.8532 9.468 27.7772 8.808 28.8572 8.352C29.9612 7.896 31.2092 7.668 32.6012 7.668C33.9932 7.668 35.2292 7.896 36.3092 8.352C37.4132 8.808 38.3372 9.468 39.0812 10.332C39.8492 11.172 40.4372 12.204 40.8452 13.428C41.2532 14.652 41.4572 16.02 41.4572 17.532C41.4572 19.044 41.2532 20.412 40.8452 21.636C40.4372 22.86 39.8492 23.904 39.0812 24.768C38.3372 25.632 37.4132 26.292 36.3092 26.748C35.2292 27.204 33.9932 27.432 32.6012 27.432ZM32.6012 23.22C33.6572 23.22 34.4732 22.896 35.0492 22.248C35.6252 21.6 35.9132 20.676 35.9132 19.476V15.624C35.9132 14.424 35.6252 13.5 35.0492 12.852C34.4732 12.204 33.6572 11.88 32.6012 11.88C31.5452 11.88 30.7292 12.204 30.1532 12.852C29.5772 13.5 29.2892 14.424 29.2892 15.624V19.476C29.2892 20.676 29.5772 21.6 30.1532 22.248C30.7292 22.896 31.5452 23.22 32.6012 23.22ZM45.2535 27V8.1H50.5815V11.304H50.7975C51.1335 10.296 51.7095 9.444 52.5255 8.748C53.3415 8.028 54.4575 7.668 55.8735 7.668C57.1695 7.668 58.2735 7.992 59.1855 8.64C60.0975 9.288 60.7575 10.236 61.1655 11.484H61.2735C61.4415 10.956 61.6935 10.464 62.0295 10.008C62.3895 9.528 62.8215 9.12 63.3255 8.784C63.8295 8.448 64.3935 8.184 65.0175 7.992C65.6415 7.776 66.3135 7.668 67.0335 7.668C68.8575 7.668 70.2495 8.316 71.2095 9.612C72.1935 10.908 72.6855 12.756 72.6855 15.156V27H67.3575V15.588C67.3575 13.188 66.4935 11.988 64.7655 11.988C63.9735 11.988 63.2535 12.216 62.6055 12.672C61.9575 13.128 61.6335 13.824 61.6335 14.76V27H56.3055V15.588C56.3055 13.188 55.4415 11.988 53.7135 11.988C53.3295 11.988 52.9455 12.048 52.5615 12.168C52.2015 12.264 51.8655 12.432 51.5535 12.672C51.2655 12.912 51.0255 13.212 50.8335 13.572C50.6655 13.908 50.5815 14.304 50.5815 14.76V27H45.2535ZM77.4215 8.1H82.7495V11.268H82.9295C83.1935 10.212 83.7935 9.348 84.7295 8.676C85.6895 8.004 86.7815 7.668 88.0055 7.668C90.4055 7.668 92.2175 8.508 93.4415 10.188C94.6655 11.868 95.2775 14.316 95.2775 17.532C95.2775 20.748 94.6655 23.208 93.4415 24.912C92.2175 26.592 90.4055 27.432 88.0055 27.432C87.3815 27.432 86.7935 27.336 86.2415 27.144C85.6895 26.976 85.1855 26.736 84.7295 26.424C84.2975 26.088 83.9255 25.704 83.6135 25.272C83.3015 24.816 83.0735 24.336 82.9295 23.832H82.7495V34.2H77.4215V8.1ZM86.2415 23.112C87.2495 23.112 88.0775 22.764 88.7255 22.068C89.3975 21.348 89.7335 20.388 89.7335 19.188V15.912C89.7335 14.712 89.3975 13.764 88.7255 13.068C88.0775 12.348 87.2495 11.988 86.2415 11.988C85.2335 11.988 84.3935 12.24 83.7215 12.744C83.0735 13.224 82.7495 13.896 82.7495 14.76V20.34C82.7495 21.204 83.0735 21.888 83.7215 22.392C84.3935 22.872 85.2335 23.112 86.2415 23.112ZM110.484 23.832H110.304C110.136 24.312 109.908 24.768 109.62 25.2C109.356 25.632 109.008 26.016 108.576 26.352C108.144 26.688 107.628 26.952 107.028 27.144C106.452 27.336 105.78 27.432 105.012 27.432C103.068 27.432 101.592 26.796 100.584 25.524C99.5998 24.228 99.1078 22.38 99.1078 19.98V8.1H104.436V19.512C104.436 20.664 104.64 21.552 105.048 22.176C105.456 22.8 106.152 23.112 107.136 23.112C107.544 23.112 107.952 23.052 108.36 22.932C108.768 22.812 109.128 22.644 109.44 22.428C109.752 22.188 110.004 21.9 110.196 21.564C110.388 21.228 110.484 20.832 110.484 20.376V8.1H115.812V27H110.484V23.832ZM127.393 27C125.545 27 124.141 26.532 123.181 25.596C122.245 24.66 121.777 23.292 121.777 21.492V12.24H119.113V8.1H120.445C121.165 8.1 121.657 7.932 121.921 7.596C122.185 7.236 122.317 6.732 122.317 6.084V2.988H127.105V8.1H130.849V12.24H127.105V22.86H130.561V27H127.393ZM142.294 27.432C140.854 27.432 139.57 27.204 138.442 26.748C137.314 26.268 136.354 25.608 135.562 24.768C134.794 23.904 134.206 22.86 133.798 21.636C133.414 20.412 133.222 19.044 133.222 17.532C133.222 16.044 133.414 14.7 133.798 13.5C134.182 12.276 134.746 11.232 135.49 10.368C136.258 9.504 137.194 8.844 138.298 8.388C139.402 7.908 140.662 7.668 142.078 7.668C143.638 7.668 144.97 7.932 146.074 8.46C147.202 8.988 148.114 9.696 148.81 10.584C149.53 11.472 150.046 12.504 150.358 13.68C150.694 14.832 150.862 16.044 150.862 17.316V18.9H138.73V19.188C138.73 20.436 139.066 21.432 139.738 22.176C140.41 22.896 141.466 23.256 142.906 23.256C144.01 23.256 144.91 23.04 145.606 22.608C146.302 22.152 146.95 21.612 147.55 20.988L150.214 24.3C149.374 25.284 148.27 26.052 146.902 26.604C145.558 27.156 144.022 27.432 142.294 27.432ZM142.186 11.592C141.106 11.592 140.254 11.952 139.63 12.672C139.03 13.368 138.73 14.304 138.73 15.48V15.768H145.354V15.444C145.354 14.292 145.09 13.368 144.562 12.672C144.058 11.952 143.266 11.592 142.186 11.592ZM154.625 27V8.1H159.953V12.204H160.133C160.229 11.676 160.397 11.172 160.637 10.692C160.877 10.188 161.189 9.744 161.573 9.36C161.981 8.976 162.461 8.676 163.013 8.46C163.565 8.22 164.213 8.1 164.957 8.1H165.893V13.068H164.561C163.001 13.068 161.837 13.272 161.069 13.68C160.325 14.088 159.953 14.844 159.953 15.948V27H154.625ZM177.975 27V1.872H195.075V6.732H183.447V11.88H193.419V16.704H183.447V22.14H195.075V27H177.975ZM199.554 27V8.1H204.882V11.304H205.098C205.434 10.32 206.022 9.468 206.862 8.748C207.702 8.028 208.866 7.668 210.354 7.668C212.298 7.668 213.762 8.316 214.746 9.612C215.754 10.908 216.258 12.756 216.258 15.156V27H210.93V15.588C210.93 14.364 210.738 13.464 210.354 12.888C209.97 12.288 209.286 11.988 208.302 11.988C207.87 11.988 207.45 12.048 207.042 12.168C206.634 12.264 206.262 12.432 205.926 12.672C205.614 12.912 205.362 13.212 205.17 13.572C204.978 13.908 204.882 14.304 204.882 14.76V27H199.554ZM238.496 28.368C238.496 29.376 238.316 30.264 237.956 31.032C237.62 31.8 237.056 32.448 236.264 32.976C235.472 33.528 234.416 33.936 233.096 34.2C231.8 34.488 230.192 34.632 228.272 34.632C226.64 34.632 225.248 34.524 224.096 34.308C222.968 34.116 222.044 33.828 221.324 33.444C220.628 33.084 220.112 32.628 219.776 32.076C219.464 31.548 219.308 30.936 219.308 30.24C219.308 29.184 219.62 28.356 220.244 27.756C220.868 27.156 221.732 26.784 222.836 26.64V26.244C221.924 26.076 221.24 25.692 220.784 25.092C220.328 24.468 220.1 23.748 220.1 22.932C220.1 22.428 220.196 21.996 220.388 21.636C220.604 21.252 220.868 20.928 221.18 20.664C221.516 20.376 221.9 20.148 222.332 19.98C222.764 19.812 223.196 19.68 223.628 19.584V19.44C222.476 18.912 221.624 18.192 221.072 17.28C220.52 16.344 220.244 15.264 220.244 14.04C220.244 12.12 220.904 10.584 222.224 9.432C223.568 8.256 225.608 7.668 228.344 7.668C229.592 7.668 230.66 7.788 231.548 8.028V7.308C231.548 6.3 231.788 5.58 232.268 5.148C232.772 4.692 233.48 4.464 234.392 4.464H237.38V8.424H233.204V8.64C234.308 9.168 235.124 9.9 235.652 10.836C236.18 11.748 236.444 12.816 236.444 14.04C236.444 15.936 235.772 17.46 234.428 18.612C233.108 19.74 231.08 20.304 228.344 20.304C227.12 20.304 226.004 20.172 224.996 19.908C224.444 20.268 224.168 20.772 224.168 21.42C224.168 21.876 224.336 22.236 224.672 22.5C225.032 22.74 225.62 22.86 226.436 22.86H231.908C234.212 22.86 235.88 23.34 236.912 24.3C237.968 25.26 238.496 26.616 238.496 28.368ZM233.492 29.088C233.492 28.536 233.276 28.116 232.844 27.828C232.412 27.54 231.656 27.396 230.576 27.396H224.096C223.856 27.636 223.676 27.9 223.556 28.188C223.46 28.5 223.412 28.8 223.412 29.088C223.412 29.784 223.712 30.288 224.312 30.6C224.912 30.936 225.932 31.104 227.372 31.104H229.532C230.972 31.104 231.992 30.936 232.592 30.6C233.192 30.288 233.492 29.784 233.492 29.088ZM228.344 16.812C229.4 16.812 230.18 16.596 230.684 16.164C231.212 15.708 231.476 15.06 231.476 14.22V13.788C231.476 12.948 231.212 12.312 230.684 11.88C230.18 11.424 229.4 11.196 228.344 11.196C227.288 11.196 226.496 11.424 225.968 11.88C225.464 12.312 225.212 12.948 225.212 13.788V14.22C225.212 15.06 225.464 15.708 225.968 16.164C226.496 16.596 227.288 16.812 228.344 16.812ZM243.527 6.084C242.447 6.084 241.655 5.844 241.151 5.364C240.671 4.86 240.431 4.224 240.431 3.456V2.664C240.431 1.896 240.671 1.272 241.151 0.791998C241.655 0.287999 242.447 0.0359995 243.527 0.0359995C244.607 0.0359995 245.387 0.287999 245.867 0.791998C246.371 1.272 246.623 1.896 246.623 2.664V3.456C246.623 4.224 246.371 4.86 245.867 5.364C245.387 5.844 244.607 6.084 243.527 6.084ZM240.863 8.1H246.191V27H240.863V8.1ZM251.164 27V8.1H256.492V11.304H256.708C257.044 10.32 257.632 9.468 258.472 8.748C259.312 8.028 260.476 7.668 261.964 7.668C263.908 7.668 265.372 8.316 266.356 9.612C267.364 10.908 267.868 12.756 267.868 15.156V27H262.54V15.588C262.54 14.364 262.348 13.464 261.964 12.888C261.58 12.288 260.896 11.988 259.912 11.988C259.48 11.988 259.06 12.048 258.652 12.168C258.244 12.264 257.872 12.432 257.536 12.672C257.224 12.912 256.972 13.212 256.78 13.572C256.588 13.908 256.492 14.304 256.492 14.76V27H251.164ZM280.493 27.432C279.053 27.432 277.769 27.204 276.641 26.748C275.513 26.268 274.553 25.608 273.761 24.768C272.993 23.904 272.405 22.86 271.997 21.636C271.613 20.412 271.421 19.044 271.421 17.532C271.421 16.044 271.613 14.7 271.997 13.5C272.381 12.276 272.945 11.232 273.689 10.368C274.457 9.504 275.393 8.844 276.497 8.388C277.601 7.908 278.861 7.668 280.277 7.668C281.837 7.668 283.169 7.932 284.273 8.46C285.401 8.988 286.313 9.696 287.009 10.584C287.729 11.472 288.245 12.504 288.557 13.68C288.893 14.832 289.061 16.044 289.061 17.316V18.9H276.929V19.188C276.929 20.436 277.265 21.432 277.937 22.176C278.609 22.896 279.665 23.256 281.105 23.256C282.209 23.256 283.109 23.04 283.805 22.608C284.501 22.152 285.149 21.612 285.749 20.988L288.413 24.3C287.573 25.284 286.469 26.052 285.101 26.604C283.757 27.156 282.221 27.432 280.493 27.432ZM280.385 11.592C279.305 11.592 278.453 11.952 277.829 12.672C277.229 13.368 276.929 14.304 276.929 15.48V15.768H283.553V15.444C283.553 14.292 283.289 13.368 282.761 12.672C282.257 11.952 281.465 11.592 280.385 11.592ZM300.708 27.432C299.268 27.432 297.984 27.204 296.856 26.748C295.728 26.268 294.768 25.608 293.976 24.768C293.208 23.904 292.62 22.86 292.212 21.636C291.828 20.412 291.636 19.044 291.636 17.532C291.636 16.044 291.828 14.7 292.212 13.5C292.596 12.276 293.16 11.232 293.904 10.368C294.672 9.504 295.608 8.844 296.712 8.388C297.816 7.908 299.076 7.668 300.492 7.668C302.052 7.668 303.384 7.932 304.488 8.46C305.616 8.988 306.528 9.696 307.224 10.584C307.944 11.472 308.46 12.504 308.772 13.68C309.108 14.832 309.276 16.044 309.276 17.316V18.9H297.144V19.188C297.144 20.436 297.48 21.432 298.152 22.176C298.824 22.896 299.88 23.256 301.32 23.256C302.424 23.256 303.324 23.04 304.02 22.608C304.716 22.152 305.364 21.612 305.964 20.988L308.628 24.3C307.788 25.284 306.684 26.052 305.316 26.604C303.972 27.156 302.436 27.432 300.708 27.432ZM300.6 11.592C299.52 11.592 298.668 11.952 298.044 12.672C297.444 13.368 297.144 14.304 297.144 15.48V15.768H303.768V15.444C303.768 14.292 303.504 13.368 302.976 12.672C302.472 11.952 301.68 11.592 300.6 11.592ZM313.039 27V8.1H318.367V12.204H318.547C318.643 11.676 318.811 11.172 319.051 10.692C319.291 10.188 319.603 9.744 319.987 9.36C320.395 8.976 320.875 8.676 321.427 8.46C321.979 8.22 322.627 8.1 323.371 8.1H324.307V13.068H322.975C321.415 13.068 320.251 13.272 319.483 13.68C318.739 14.088 318.367 14.844 318.367 15.948V27H313.039ZM330.257 6.084C329.177 6.084 328.385 5.844 327.881 5.364C327.401 4.86 327.161 4.224 327.161 3.456V2.664C327.161 1.896 327.401 1.272 327.881 0.791998C328.385 0.287999 329.177 0.0359995 330.257 0.0359995C331.337 0.0359995 332.117 0.287999 332.597 0.791998C333.101 1.272 333.353 1.896 333.353 2.664V3.456C333.353 4.224 333.101 4.86 332.597 5.364C332.117 5.844 331.337 6.084 330.257 6.084ZM327.593 8.1H332.921V27H327.593V8.1ZM337.894 27V8.1H343.222V11.304H343.438C343.774 10.32 344.362 9.468 345.202 8.748C346.042 8.028 347.206 7.668 348.694 7.668C350.638 7.668 352.102 8.316 353.086 9.612C354.094 10.908 354.598 12.756 354.598 15.156V27H349.27V15.588C349.27 14.364 349.078 13.464 348.694 12.888C348.31 12.288 347.626 11.988 346.642 11.988C346.21 11.988 345.79 12.048 345.382 12.168C344.974 12.264 344.602 12.432 344.266 12.672C343.954 12.912 343.702 13.212 343.51 13.572C343.318 13.908 343.222 14.304 343.222 14.76V27H337.894ZM376.835 28.368C376.835 29.376 376.655 30.264 376.295 31.032C375.959 31.8 375.395 32.448 374.603 32.976C373.811 33.528 372.755 33.936 371.435 34.2C370.139 34.488 368.531 34.632 366.611 34.632C364.979 34.632 363.587 34.524 362.435 34.308C361.307 34.116 360.383 33.828 359.663 33.444C358.967 33.084 358.451 32.628 358.115 32.076C357.803 31.548 357.647 30.936 357.647 30.24C357.647 29.184 357.959 28.356 358.583 27.756C359.207 27.156 360.071 26.784 361.175 26.64V26.244C360.263 26.076 359.579 25.692 359.123 25.092C358.667 24.468 358.439 23.748 358.439 22.932C358.439 22.428 358.535 21.996 358.727 21.636C358.943 21.252 359.207 20.928 359.519 20.664C359.855 20.376 360.239 20.148 360.671 19.98C361.103 19.812 361.535 19.68 361.967 19.584V19.44C360.815 18.912 359.963 18.192 359.411 17.28C358.859 16.344 358.583 15.264 358.583 14.04C358.583 12.12 359.243 10.584 360.563 9.432C361.907 8.256 363.947 7.668 366.683 7.668C367.931 7.668 368.999 7.788 369.887 8.028V7.308C369.887 6.3 370.127 5.58 370.607 5.148C371.111 4.692 371.819 4.464 372.731 4.464H375.719V8.424H371.543V8.64C372.647 9.168 373.463 9.9 373.991 10.836C374.519 11.748 374.783 12.816 374.783 14.04C374.783 15.936 374.111 17.46 372.767 18.612C371.447 19.74 369.419 20.304 366.683 20.304C365.459 20.304 364.343 20.172 363.335 19.908C362.783 20.268 362.507 20.772 362.507 21.42C362.507 21.876 362.675 22.236 363.011 22.5C363.371 22.74 363.959 22.86 364.775 22.86H370.247C372.551 22.86 374.219 23.34 375.251 24.3C376.307 25.26 376.835 26.616 376.835 28.368ZM371.831 29.088C371.831 28.536 371.615 28.116 371.183 27.828C370.751 27.54 369.995 27.396 368.915 27.396H362.435C362.195 27.636 362.015 27.9 361.895 28.188C361.799 28.5 361.751 28.8 361.751 29.088C361.751 29.784 362.051 30.288 362.651 30.6C363.251 30.936 364.271 31.104 365.711 31.104H367.871C369.311 31.104 370.331 30.936 370.931 30.6C371.531 30.288 371.831 29.784 371.831 29.088ZM366.683 16.812C367.739 16.812 368.519 16.596 369.023 16.164C369.551 15.708 369.815 15.06 369.815 14.22V13.788C369.815 12.948 369.551 12.312 369.023 11.88C368.519 11.424 367.739 11.196 366.683 11.196C365.627 11.196 364.835 11.424 364.307 11.88C363.803 12.312 363.551 12.948 363.551 13.788V14.22C363.551 15.06 363.803 15.708 364.307 16.164C364.835 16.596 365.627 16.812 366.683 16.812Z" fill="white"/>
</svg>
